<svg width="24" height="24" viewBox="0 0 24 24" fill="none" xmlns="http://www.w3.org/2000/svg">
<path d="M19.4154 5.09841C18.7798 4.36672 17.946 4 17.1122 4C16.2784 4 15.4445 4.36672 14.809 5.09841L12.2954 7.99218L9.91046 5.24614C9.27488 4.51445 8.44106 4.14773 7.60724 4.14773C6.77342 4.14773 5.9396 4.51445 5.30402 5.24614C4.36275 6.22985 4.34913 7.88095 4.34913 7.88095L4.34308 18.8355C4.34308 19.5655 4.70627 20 5.31612 20H8.16867C8.87688 20 9.13414 19.4004 9.13414 18.9989V14.8816C10.1768 16.0217 11.3693 17.3287 11.5887 17.5824C11.7945 17.8206 12.02 18.0534 12.3166 18.0639C12.3242 18.0639 12.6132 18.149 13.1277 17.5581C13.3759 17.2713 14.4957 15.9887 15.5475 14.7825V18.9989C15.5475 19.4021 15.8047 20 16.5114 20H19.364C19.9723 20 20.337 19.5638 20.337 18.8355C20.337 18.8355 20.3431 7.79926 20.3431 7.73496C20.3461 6.77037 20.054 5.83359 19.4154 5.09841Z" fill="white"/>
<path d="M19.4154 5.09841C18.7798 4.36672 17.946 4 17.1122 4C16.2784 4 15.4445 4.36672 14.809 5.09841L12.2954 7.99218L9.91046 5.24614C9.27488 4.51445 8.44106 4.14773 7.60724 4.14773C6.77342 4.14773 5.9396 4.51445 5.30402 5.24614C4.36275 6.22985 4.34913 7.88095 4.34913 7.88095L4.34308 18.8355C4.34308 19.5655 4.70627 20 5.31612 20H8.16867C8.87688 20 9.13414 19.4004 9.13414 18.9989V14.8816C10.1768 16.0217 11.3693 17.3287 11.5887 17.5824C11.7945 17.8206 12.02 18.0534 12.3166 18.0639C12.3242 18.0639 12.6132 18.149 13.1277 17.5581C13.3759 17.2713 14.4957 15.9887 15.5475 14.7825V18.9989C15.5475 19.4021 15.8047 20 16.5114 20H19.364C19.9723 20 20.337 19.5638 20.337 18.8355C20.337 18.8355 20.3431 7.79926 20.3431 7.73496C20.3461 6.77037 20.054 5.83359 19.4154 5.09841Z" stroke="white" stroke-width="6.7" stroke-miterlimit="10"/>
<path d="M19.5879 8.57441C19.6015 8.52053 19.6151 8.46492 19.6257 8.4093C19.6257 8.4093 19.6257 8.4093 19.6257 8.40756C19.6257 8.40756 19.6257 8.40756 19.6257 8.4093C19.6151 8.46492 19.6015 8.51879 19.5879 8.57441Z" fill="#475658"/>
<path d="M18.913 5.70671C18.8661 5.65283 18.8161 5.60243 18.7662 5.55377C18.8161 5.60417 18.8661 5.65283 18.913 5.70671C19.4048 6.27156 19.6757 7.02238 19.6757 7.82012C19.6757 7.86357 19.6696 7.90702 19.6651 7.95047C19.6696 7.90702 19.6757 7.86531 19.6757 7.82012C19.6757 7.02238 19.4048 6.27156 18.913 5.70671Z" fill="#475658"/>
<path d="M18.9327 9.90745C18.9251 9.91614 18.919 9.92483 18.9115 9.93352L17.9975 10.9833C17.5601 11.3552 17.0214 11.5603 16.4751 11.5603C16.3253 11.5603 16.1785 11.5394 16.0347 11.5099C15.7275 11.4491 15.4385 11.3204 15.1721 11.1362C15.154 11.124 15.1328 11.1136 15.1146 11.1015C15.0178 11.0302 14.93 10.9468 14.8422 10.8599C14.7863 10.806 14.7272 10.7608 14.6743 10.7017L14.591 10.6061L14.2566 10.222L12.7751 8.52053L15.2281 5.70324C15.72 5.13839 16.3737 4.82729 17.0683 4.82729C18.1881 4.82729 18.8631 5.64936 18.91 5.70324C19.1339 5.96046 19.3095 6.25766 19.4366 6.57919C19.4714 6.66782 19.5032 6.7582 19.5304 6.84858C19.6227 7.1562 19.6727 7.48295 19.6727 7.81664C19.6742 7.86531 19.7423 8.97936 18.9327 9.90745ZM19.653 18.7208C19.653 19.1084 19.5259 19.1814 19.2913 19.1814H16.4796C16.1951 19.1814 16.1301 19.0146 16.1255 18.8825V14.1204H16.124C16.8716 13.2618 18.8464 10.9937 19.2595 10.5192C19.4139 10.342 19.541 10.1577 19.6515 9.9735V18.7208H19.653ZM12.7236 16.9811C12.4876 17.2522 12.4013 17.2818 12.365 17.2783C12.312 17.2766 12.2167 17.1723 12.0517 17.0054C10.7412 15.6932 5.86543 10.0813 5.86543 10.0813C4.4384 8.18857 5.37362 6.41755 5.86543 5.8527C6.35725 5.28786 7.01099 4.97675 7.70711 4.97675C8.40322 4.97675 9.05696 5.28786 9.54726 5.8527L14.2248 11.2249C14.9815 12.0939 16.0408 12.4814 16.6567 12.4814C15.6186 13.665 13.1095 16.5362 12.7236 16.9811ZM8.61356 18.8807C8.61356 18.9503 8.58784 19.1797 8.25945 19.1797H5.44777C5.21321 19.1797 5.08609 19.1067 5.08609 18.7191V10.0813C5.09517 10.0934 5.10274 10.1021 5.10274 10.1021C5.20413 10.2655 5.30855 10.4254 5.43718 10.5714L7.60117 13.0567L7.59209 13.0671C7.59815 13.0741 7.73283 13.2201 7.94923 13.4547L8.61508 14.2194V18.8807H8.61356ZM19.3413 5.21486C18.7147 4.49533 17.893 4.13556 17.0713 4.13556C16.2496 4.13556 15.4294 4.49533 14.8014 5.21486L12.3241 8.05996L9.974 5.36085C9.3475 4.64132 8.52579 4.28156 7.70408 4.28156C6.88236 4.28156 6.06065 4.64132 5.43415 5.36085C4.5065 6.32892 4.4944 7.95221 4.4944 7.95221H4.48834V18.7208C4.48834 19.4386 4.84699 19.8662 5.44626 19.8662H8.25794C8.95556 19.8662 9.20828 19.277 9.20828 18.8807V14.8329C10.2358 15.9539 11.4101 17.2401 11.628 17.4886C11.8308 17.7215 12.0533 17.9509 12.3453 17.9613C12.3529 17.9613 12.6389 18.0465 13.1443 17.4643C13.3895 17.1827 14.4912 15.9209 15.5293 14.7339V18.8807C15.5293 19.277 15.782 19.8662 16.4796 19.8662H19.2913C19.8921 19.8662 20.2492 19.4386 20.2492 18.7208C20.2492 18.7208 20.2553 7.87052 20.2553 7.80795C20.2583 6.859 19.9708 5.93787 19.3413 5.21486Z" fill="#475658"/>
<path d="M19.4396 6.58267C19.4744 6.6713 19.5062 6.76168 19.5334 6.85206C19.5062 6.75994 19.4744 6.66957 19.4396 6.58267Z" fill="#D44B4B"/>
<path d="M14.2581 10.2255L14.594 10.6096L12.7781 8.52401L14.2581 10.2255Z" fill="#D44B4B"/>
<path d="M19.6741 7.82012C19.6741 7.48468 19.6242 7.15968 19.5319 6.85205C19.5046 6.75994 19.4729 6.66956 19.4381 6.58266C19.3109 6.26113 19.1354 5.96394 18.9114 5.70671C18.8645 5.65283 18.1866 4.83076 17.0713 4.83076C16.3752 4.83076 15.7214 5.14186 15.2296 5.70671L12.7781 8.52401L14.594 10.6096L14.6773 10.7052C14.7287 10.7643 14.7892 10.8095 14.8452 10.8633C14.933 10.9485 15.0223 11.0337 15.1176 11.1032C15.1358 11.1171 15.157 11.1258 15.1751 11.138C15.4415 11.3204 15.7305 11.4508 16.0377 11.5116C16.183 11.5412 16.3283 11.5603 16.4781 11.5603C17.0244 11.5603 17.5631 11.3552 18.0004 10.9833C18.0004 10.9833 18.9281 9.91614 18.9341 9.90745C19.7422 8.97936 19.6741 7.8653 19.6741 7.82012Z" fill="#D44B4B"/>
<path d="M17.0713 4.83076C17.1515 4.83076 17.1515 4.83076 17.0713 4.83076C16.3752 4.83076 15.7214 5.14186 15.2296 5.70671L12.7781 8.52401L15.2311 5.70671C15.723 5.14186 16.3767 4.83076 17.0713 4.83076Z" fill="#475658"/>
<path d="M18.913 9.93526C18.9206 9.92657 18.9266 9.91788 18.9342 9.90919C18.9251 9.91614 18.919 9.92657 18.913 9.93526Z" fill="#475658"/>
</svg>
